<?xml version="1.0" standalone="no"?>
<!DOCTYPE svg PUBLIC "-//W3C//DTD SVG 20010904//EN"
 "http://www.w3.org/TR/2001/REC-SVG-20010904/DTD/svg10.dtd">
<svg version="1.0" xmlns="http://www.w3.org/2000/svg"
 width="262.000000pt" height="262.000000pt" viewBox="0 0 262.000000 262.000000"
 preserveAspectRatio="xMidYMid meet">
<metadata>
Created by potrace 1.11, written by Peter Selinger 2001-2013
</metadata>
<g transform="translate(0.000000,262.000000) scale(0.100000,-0.100000)"
fill="#000000" stroke="none">
<path d="M651 2414 c-14 -6 -34 -21 -45 -32 -14 -17 -84 -268 -142 -514 -2
-10 -6 -26 -8 -35 -2 -10 -88 -355 -191 -768 -169 -677 -186 -753 -176 -785
12 -42 33 -63 76 -77 35 -11 409 -10 445 1 44 14 66 48 85 126 2 8 29 116 60
240 31 124 59 233 61 242 2 10 6 26 8 35 32 138 45 167 86 188 24 12 78 15
310 15 232 0 286 -3 310 -15 34 -17 60 -62 60 -100 0 -14 -32 -153 -71 -308
-40 -155 -72 -299 -71 -321 0 -31 7 -46 36 -74 l36 -36 210 -1 c122 -1 224 4
242 10 52 17 70 58 128 291 30 120 55 224 56 229 1 6 57 228 124 495 67 267
124 496 126 508 3 13 12 49 20 80 8 32 17 68 20 82 3 14 8 34 11 45 4 11 8 25
9 30 1 6 14 57 29 115 15 58 29 115 31 127 2 12 8 33 13 45 13 34 7 93 -13
123 -30 46 -63 52 -292 50 -226 -1 -247 -5 -274 -55 -10 -18 -133 -495 -145
-557 -5 -33 -34 -133 -46 -164 -5 -14 -23 -33 -40 -43 -27 -16 -59 -18 -314
-17 -237 0 -290 3 -314 16 -33 17 -54 47 -58 85 -2 14 29 151 68 305 38 154
71 294 71 312 2 40 -38 99 -72 109 -42 12 -430 10 -459 -2z"/>
</g>
</svg>
